solid OpenSCAD_Model
  facet normal 0 1 0
    outer loop
      vertex 5.5 8 0
      vertex 5.5 8 1
      vertex 7.5 8 0.5
    endloop
  endfacet
  facet normal 0 1 0
    outer loop
      vertex 1.5 8 13
      vertex 0 8 3
      vertex 0 8 13
    endloop
  endfacet
  facet normal 0 1 0
    outer loop
      vertex 1.5 8 1
      vertex 0 8 3
      vertex 1.5 8 13
    endloop
  endfacet
  facet normal 0 1 0
    outer loop
      vertex -1 8 0
      vertex 0 8 3
      vertex 1.5 8 1
    endloop
  endfacet
  facet normal 0 1 0
    outer loop
      vertex 5.5 8 1
      vertex 5.5 8 0
      vertex 1.5 8 1
    endloop
  endfacet
  facet normal 0 1 0
    outer loop
      vertex 0 8 3
      vertex -1 8 0
      vertex -1 8 3
    endloop
  endfacet
  facet normal 0 1 0
    outer loop
      vertex -1 8 0
      vertex 1.5 8 1
      vertex 5.5 8 0
    endloop
  endfacet
  facet normal 0 0 -1
    outer loop
      vertex -1 0 0
      vertex 5.5 8 0
      vertex 5.5 0 0
    endloop
  endfacet
  facet normal 0 0 -1
    outer loop
      vertex 5.5 8 0
      vertex -1 0 0
      vertex -1 8 0
    endloop
  endfacet
  facet normal 1 0 0
    outer loop
      vertex 1.5 0 13
      vertex 1.5 8 1
      vertex 1.5 8 13
    endloop
  endfacet
  facet normal 1 0 0
    outer loop
      vertex 1.5 8 1
      vertex 1.5 0 13
      vertex 1.5 0 1
    endloop
  endfacet
  facet normal 0 0 1
    outer loop
      vertex 1.5 8 1
      vertex 5.5 0 1
      vertex 5.5 8 1
    endloop
  endfacet
  facet normal 0 0 1
    outer loop
      vertex 5.5 0 1
      vertex 1.5 8 1
      vertex 1.5 0 1
    endloop
  endfacet
  facet normal 0 -1 0
    outer loop
      vertex -1 0 0
      vertex 0 0 3
      vertex -1 0 3
    endloop
  endfacet
  facet normal 0 -1 0
    outer loop
      vertex 5.5 0 0
      vertex 5.5 0 1
      vertex 1.5 0 1
    endloop
  endfacet
  facet normal 0 -1 0
    outer loop
      vertex 0 0 3
      vertex -1 0 0
      vertex 1.5 0 1
    endloop
  endfacet
  facet normal 0 -1 0
    outer loop
      vertex 5.5 0 0
      vertex 1.5 0 1
      vertex -1 0 0
    endloop
  endfacet
  facet normal 0 -1 0
    outer loop
      vertex 5.5 0 1
      vertex 5.5 0 0
      vertex 7.5 0 0.5
    endloop
  endfacet
  facet normal 0 -1 0
    outer loop
      vertex 0 0 3
      vertex 1.5 0 13
      vertex 0 0 13
    endloop
  endfacet
  facet normal 0 -1 0
    outer loop
      vertex 1.5 0 13
      vertex 0 0 3
      vertex 1.5 0 1
    endloop
  endfacet
  facet normal 0.24253562503633297 0 0.9701425001453319
    outer loop
      vertex 5.5 8 1
      vertex 7.5 0 0.5
      vertex 7.5 8 0.5
    endloop
  endfacet
  facet normal 0.24253562503633297 0 0.9701425001453319
    outer loop
      vertex 7.5 0 0.5
      vertex 5.5 8 1
      vertex 5.5 0 1
    endloop
  endfacet
  facet normal 0.24253562503633297 0 -0.9701425001453319
    outer loop
      vertex 5.5 0 0
      vertex 7.5 8 0.5
      vertex 7.5 0 0.5
    endloop
  endfacet
  facet normal 0.24253562503633297 0 -0.9701425001453319
    outer loop
      vertex 7.5 8 0.5
      vertex 5.5 0 0
      vertex 5.5 8 0
    endloop
  endfacet
  facet normal -1 0 0
    outer loop
      vertex -1 0 0
      vertex -1 8 3
      vertex -1 8 0
    endloop
  endfacet
  facet normal -1 0 0
    outer loop
      vertex -1 8 3
      vertex -1 0 0
      vertex -1 0 3
    endloop
  endfacet
  facet normal 0 0 1
    outer loop
      vertex -1 8 3
      vertex 0 0 3
      vertex 0 8 3
    endloop
  endfacet
  facet normal 0 0 1
    outer loop
      vertex 0 0 3
      vertex -1 8 3
      vertex -1 0 3
    endloop
  endfacet
  facet normal 0 0 1
    outer loop
      vertex 0 8 13
      vertex 1.5 0 13
      vertex 1.5 8 13
    endloop
  endfacet
  facet normal 0 0 1
    outer loop
      vertex 1.5 0 13
      vertex 0 8 13
      vertex 0 0 13
    endloop
  endfacet
  facet normal -1 0 0
    outer loop
      vertex 0 0 3
      vertex 0 8 13
      vertex 0 8 3
    endloop
  endfacet
  facet normal -1 0 0
    outer loop
      vertex 0 8 13
      vertex 0 0 3
      vertex 0 0 13
    endloop
  endfacet
endsolid OpenSCAD_Model
