solid OpenSCAD_Model
  facet normal 0.6904757466825006 0.7233555441435721 0
    outer loop
      vertex 22 0 0
      vertex 0 21 19
      vertex 22 0 20
    endloop
  endfacet
  facet normal 0.6904757466825006 0.7233555441435721 0
    outer loop
      vertex 22 0 20
      vertex 0 21 19
      vertex 0 21 20
    endloop
  endfacet
  facet normal -1 0 0
    outer loop
      vertex 0 0 20
      vertex 0 21 19
      vertex 0 0 0
    endloop
  endfacet
  facet normal 0 0 -1
    outer loop
      vertex 0 0 0
      vertex 0 18 0
      vertex 22 0 0
    endloop
  endfacet
  facet normal 0 -1 0
    outer loop
      vertex 22 0 0
      vertex 22 0 20
      vertex 0 0 0
    endloop
  endfacet
  facet normal -1 0 0
    outer loop
      vertex 0 21 20
      vertex 0 21 19
      vertex 0 0 20
    endloop
  endfacet
  facet normal 0 0 1
    outer loop
      vertex 0 0 20
      vertex 22 0 20
      vertex 0 21 20
    endloop
  endfacet
  facet normal 0 -1 0
    outer loop
      vertex 0 0 0
      vertex 22 0 20
      vertex 0 0 20
    endloop
  endfacet
  facet normal 0.6285617861961422 0.7682421831286183 -0.12130139733609761
    outer loop
      vertex 0 18 0
      vertex 0 21 19
      vertex 22 0 0
    endloop
  endfacet
  facet normal -1 0 0
    outer loop
      vertex 0 0 0
      vertex 0 21 19
      vertex 0 18 0
    endloop
  endfacet
endsolid OpenSCAD_Model
